<svg width="12" height="16" viewBox="0 0 12 16" fill="none" xmlns="http://www.w3.org/2000/svg">
<path d="M10.6666 15L10.4809 15.4642C10.635 15.5259 10.8096 15.507 10.9469 15.414C11.0843 15.321 11.1666 15.1659 11.1666 15H10.6666ZM0.666626 15H0.166626C0.166626 15.1659 0.248925 15.321 0.386312 15.414C0.523698 15.507 0.698276 15.5259 0.852321 15.4642L0.666626 15ZM5.66663 13L5.85232 12.5358C5.73312 12.4881 5.60014 12.4881 5.48093 12.5358L5.66663 13ZM9.57461 1.21799L9.34761 1.66349L9.57461 1.21799ZM10.4486 2.09202L10.0031 2.31901L10.4486 2.09202ZM1.75864 1.21799L1.98564 1.66349L1.75864 1.21799ZM0.884613 2.09202L1.33012 2.31901L0.884613 2.09202ZM3.86663 1.5H7.46663V0.5H3.86663V1.5ZM10.1666 4.2V15H11.1666V4.2H10.1666ZM1.16663 15V4.2H0.166626V15H1.16663ZM10.8523 14.5358L5.85232 12.5358L5.48093 13.4642L10.4809 15.4642L10.8523 14.5358ZM5.48093 12.5358L0.480931 14.5358L0.852321 15.4642L5.85232 13.4642L5.48093 12.5358ZM7.46663 1.5C8.03493 1.5 8.43109 1.50039 8.73951 1.52559C9.04209 1.55031 9.21593 1.5964 9.34761 1.66349L9.8016 0.772484C9.50546 0.62159 9.18536 0.558684 8.82094 0.528909C8.46235 0.499611 8.01843 0.5 7.46663 0.5V1.5ZM11.1666 4.2C11.1666 3.6482 11.167 3.20428 11.1377 2.84569C11.1079 2.48126 11.045 2.16117 10.8941 1.86502L10.0031 2.31901C10.0702 2.45069 10.1163 2.62454 10.141 2.92712C10.1662 3.23554 10.1666 3.6317 10.1666 4.2H11.1666ZM9.34761 1.66349C9.62986 1.8073 9.85933 2.03677 10.0031 2.31901L10.8941 1.86502C10.6545 1.39462 10.272 1.01217 9.8016 0.772484L9.34761 1.66349ZM3.86663 0.5C3.31482 0.5 2.8709 0.499611 2.51231 0.528909C2.14789 0.558684 1.8278 0.62159 1.53165 0.772484L1.98564 1.66349C2.11732 1.5964 2.29116 1.55031 2.59375 1.52559C2.90217 1.50039 3.29832 1.5 3.86663 1.5V0.5ZM1.16663 4.2C1.16663 3.6317 1.16701 3.23554 1.19221 2.92712C1.21694 2.62454 1.26302 2.45069 1.33012 2.31901L0.43911 1.86502C0.288216 2.16117 0.22531 2.48126 0.195535 2.84569C0.166237 3.20428 0.166626 3.6482 0.166626 4.2H1.16663ZM1.53165 0.772484C1.06124 1.01217 0.678793 1.39462 0.43911 1.86502L1.33012 2.31901C1.47393 2.03677 1.7034 1.8073 1.98564 1.66349L1.53165 0.772484Z" fill="#7E7F81"/>
</svg>
